HIERARCHY
ROOT hip
{
  OFFSET 0 0 0
  CHANNELS 6 Xposition Yposition Zposition Zrotation Yrotation Xrotation
  JOINT abdomen
  {
    OFFSET 0 20.6881 -0.73152
    CHANNELS 3 Zrotation Xrotation Yrotation
    JOINT chest
    {
      OFFSET 0 11.7043 -0.48768
      CHANNELS 3 Zrotation Xrotation Yrotation
      JOINT neck
      {
        OFFSET 0 22.1894 -2.19456
        CHANNELS 3 Zrotation Xrotation Yrotation
        JOINT head
        {
          OFFSET -0.24384 7.07133 1.2192
          CHANNELS 3 Zrotation Xrotation Yrotation
          JOINT leftEye
          {
            OFFSET 4.14528 8.04674 8.04672
            CHANNELS 3 Zrotation Xrotation Yrotation
            End Site
            {
              OFFSET 1 0 0
            }
          }
          JOINT rightEye
          {
            OFFSET -3.6576 8.04674 8.04672
            CHANNELS 3 Zrotation Xrotation Yrotation
            End Site
            {
              OFFSET 1 0 0
            }
          }
        }
      }
      JOINT rCollar
      {
        OFFSET -2.68224 19.2634 -4.8768
        CHANNELS 3 Zrotation Xrotation Yrotation
        JOINT rShldr
        {
          OFFSET -8.77824 -1.95073 1.46304
          CHANNELS 3 Zrotation Xrotation Yrotation
          JOINT rForeArm
          {
            OFFSET -28.1742 -1.7115 0.48768
            CHANNELS 3 Zrotation Xrotation Yrotation
            JOINT rHand
            {
              OFFSET -22.5879 0.773209 7.07136
              CHANNELS 3 Zrotation Xrotation Yrotation
              JOINT rThumb1
              {
                OFFSET -1.2192 -0.487915 3.41376
                CHANNELS 3 Zrotation Xrotation Yrotation
                JOINT rThumb2
                {
                  OFFSET -3.37035 -0.52449 3.41376
                  CHANNELS 3 Zrotation Xrotation Yrotation
                  End Site
                  {
                    OFFSET -1.78271 -1.18214 1.43049
                  }
                }
              }
              JOINT rIndex1
              {
                OFFSET -7.75947 0.938293 5.60832
                CHANNELS 3 Zrotation Xrotation Yrotation
                JOINT rIndex2
                {
                  OFFSET -2.54057 -0.884171 1.56538
                  CHANNELS 3 Zrotation Xrotation Yrotation
                  End Site
                  {
                    OFFSET -1.62519 -0.234802 1.16502
                  }
                }
              }
              JOINT rMid1
              {
                OFFSET -8.24714 1.18213 3.41376
                CHANNELS 3 Zrotation Xrotation Yrotation
                JOINT rMid2
                {
                  OFFSET -3.10165 -0.590103 1.0647
                  CHANNELS 3 Zrotation Xrotation Yrotation
                  End Site
                  {
                    OFFSET -2.48547 -0.328903 0.83742
                  }
                }
              }
              JOINT rRing1
              {
                OFFSET -8.82822 0.546677 1.51678
                CHANNELS 3 Zrotation Xrotation Yrotation
                JOINT rRing2
                {
                  OFFSET -2.60934 -0.819778 -0.0198488
                  CHANNELS 3 Zrotation Xrotation Yrotation
                  End Site
                  {
                    OFFSET -2.33842 -0.294052 0.168128
                  }
                }
              }
              JOINT rPinky1
              {
                OFFSET -8.27202 -0.0477905 -0.4584
                CHANNELS 3 Zrotation Xrotation Yrotation
                JOINT rPinky2
                {
                  OFFSET -1.82734 -0.647385 -0.700984
                  CHANNELS 3 Zrotation Xrotation Yrotation
                  End Site
                  {
                    OFFSET -1.69225 -0.51767 -0.607171
                  }
                }
              }
            }
          }
        }
      }
      JOINT lCollar
      {
        OFFSET 2.68224 19.2634 -4.8768
        CHANNELS 3 Zrotation Xrotation Yrotation
        JOINT lShldr
        {
          OFFSET 8.77824 -1.95073 1.46304
          CHANNELS 3 Zrotation Xrotation Yrotation
          JOINT lForeArm
          {
            OFFSET 28.1742 -1.7115 0.48768
            CHANNELS 3 Zrotation Xrotation Yrotation
            JOINT lHand
            {
              OFFSET 22.5879 0.773209 7.07136
              CHANNELS 3 Zrotation Xrotation Yrotation
              JOINT lThumb1
              {
                OFFSET 1.2192 -0.487915 3.41376
                CHANNELS 3 Zrotation Xrotation Yrotation
                JOINT lThumb2
                {
                  OFFSET 3.37035 -0.52449 3.41376
                  CHANNELS 3 Zrotation Xrotation Yrotation
                  End Site
                  {
                    OFFSET 1.78271 -1.18214 1.43049
                  }
                }
              }
              JOINT lIndex1
              {
                OFFSET 7.75947 0.938293 5.60832
                CHANNELS 3 Zrotation Xrotation Yrotation
                JOINT lIndex2
                {
                  OFFSET 2.54057 -0.884171 1.56538
                  CHANNELS 3 Zrotation Xrotation Yrotation
                  End Site
                  {
                    OFFSET 1.62519 -0.234802 1.16502
                  }
                }
              }
              JOINT lMid1
              {
                OFFSET 8.24714 1.18213 3.41376
                CHANNELS 3 Zrotation Xrotation Yrotation
                JOINT lMid2
                {
                  OFFSET 3.10165 -0.590103 1.0647
                  CHANNELS 3 Zrotation Xrotation Yrotation
                  End Site
                  {
                    OFFSET 2.48547 -0.328903 0.83742
                  }
                }
              }
              JOINT lRing1
              {
                OFFSET 8.82822 0.546677 1.51678
                CHANNELS 3 Zrotation Xrotation Yrotation
                JOINT lRing2
                {
                  OFFSET 2.60934 -0.819778 -0.0198488
                  CHANNELS 3 Zrotation Xrotation Yrotation
                  End Site
                  {
                    OFFSET 2.33842 -0.294052 0.168128
                  }
                }
              }
              JOINT lPinky1
              {
                OFFSET 8.27202 -0.0477905 -0.4584
                CHANNELS 3 Zrotation Xrotation Yrotation
                JOINT lPinky2
                {
                  OFFSET 1.82734 -0.647385 -0.700984
                  CHANNELS 3 Zrotation Xrotation Yrotation
                  End Site
                  {
                    OFFSET 1.69225 -0.51767 -0.607171
                  }
                }
              }
            }
          }
        }
      }
    }
  }
  JOINT rButtock
  {
    OFFSET -8.77824 4.35084 1.2192
    CHANNELS 3 Zrotation Xrotation Yrotation
    JOINT rThigh
    {
      OFFSET 0 -1.70687 -2.19456
      CHANNELS 3 Zrotation Xrotation Yrotation
      JOINT rShin
      {
        OFFSET 0 -36.8199 0.73152
        CHANNELS 3 Zrotation Xrotation Yrotation
        JOINT rFoot
        {
          OFFSET 0.73152 -45.1104 -5.12064
          CHANNELS 3 Zrotation Xrotation Yrotation
          End Site
          {
            OFFSET -1.1221 -3.69964 12.103
          }
        }
      }
    }
  }
  JOINT lButtock
  {
    OFFSET 8.77824 4.35084 1.2192
    CHANNELS 3 Zrotation Xrotation Yrotation
    JOINT lThigh
    {
      OFFSET 0 -1.70687 -2.19456
      CHANNELS 3 Zrotation Xrotation Yrotation
      JOINT lShin
      {
        OFFSET 0 -36.8199 0.73152
        CHANNELS 3 Zrotation Xrotation Yrotation
        JOINT lFoot
        {
          OFFSET -0.73152 -45.1104 -5.12064
          CHANNELS 3 Zrotation Xrotation Yrotation
          End Site
          {
            OFFSET 1.1221 -3.69964 12.103
          }
        }
      }
    }
  }
}
MOTION
Frames:	6
Frame Time:	0.00833333
-3.96212 84.2564 38.084 0.0 0.0 0.0 -1.24151 -0.00398119 -0.0340789 -0.342494 -0.00249264 -0.0593272 -3.08975e-14 0.0 -3.85145e-16 -9.29194e-14 3.18055e-15 -1.19426e-15 -0.0 0.0 0.0 -0.0 0.0 0.0 -1.5358e-14 -1.0871e-17 -4.96962e-17 -3.24539e-13 -1.61513e-16 -4.17448e-15 -5.62665e-12 1.68172e-12 -6.36111e-15 -6.44587e-11 -1.73268e-12 -9.44625e-13 -1.52041e-10 -1.11762e-13 -2.03874e-12 -2.62576e-10 -1.97194e-13 -3.51849e-12 -1.52039e-10 -1.11717e-13 -2.05464e-12 7.73091 5.47488 0.417314 -1.52042e-10 -1.11717e-13 -2.03874e-12 2.90554 0.965183 0.102902 -1.52028e-10 -1.11021e-13 -2.04351e-12 10.2786 0.731801 0.0259123 -1.52046e-10 -1.10922e-13 -2.03556e-12 2.22167 -0.733487 -0.20892 -1.54546e-14 -1.12593e-17 -3.47873e-16 -3.28065e-13 -6.21202e-17 -6.16232e-15 -5.6352e-12 -1.69146e-12 -4.13472e-14 -6.44492e-11 1.65284e-12 -9.00097e-13 -1.52035e-10 -8.59292e-14 -2.0451e-12 -2.62551e-10 -1.49486e-13 -3.52564e-12 -1.52041e-10 -8.42847e-14 -2.03237e-12 -7.73091 5.47488 -0.417314 -1.52036e-10 -8.57756e-14 -2.0451e-12 -2.90554 0.965183 -0.102902 -1.52043e-10 -8.5378e-14 -2.04351e-12 -10.2786 0.731801 -0.0259123 -1.52031e-10 -8.42847e-14 -2.05464e-12 -2.22167 -0.733487 0.20892 -2.03217e-16 0.0 -3.88251e-19 -0.453824 -1.92099 -0.00952739 -0.00915572 -2.07857 -0.0755532 -0.48747 3.99699 0.136655 2.03217e-16 0.0 3.88251e-19 -1.43726 -5.97115 0.129662 -0.0012643 5.25795 -0.0454144 0.507809 0.710743 -0.0722733
-4.98683 84.0586 37.1831 -3.3881 -3.076 0.4214 -0.520648 -0.0401886 0.632378 -0.0324552 -0.365325 0.144414 -0.340799 1.91901 -0.246666 0.997314 -1.76297 -0.380481 -0.0 0.0 0.0 -0.0 0.0 0.0 -8.73281e-15 6.05704e-15 4.3429e-14 22.9321 8.90943 -3.7363 -6.31581 -3.46252 9.13605 0.054409 5.17803 0.717033 -1.72448e-10 -5.53913e-11 1.04151e-10 -2.96001e-10 -9.83337e-11 1.81168e-10 -1.72447e-10 -5.53884e-11 1.04139e-10 7.73091 5.47488 0.417314 -1.72448e-10 -5.53915e-11 1.04153e-10 2.90554 0.965183 0.102902 -1.72438e-10 -5.53878e-11 1.04149e-10 10.2786 0.731801 0.0259123 -1.72452e-10 -5.53874e-11 1.04158e-10 2.22167 -0.733487 -0.20892 -8.78216e-15 6.05602e-15 4.31149e-14 -23.521 9.10489 1.63439 5.38538 -2.73463 -8.07548 -0.0248 3.49446 -0.48782 -1.68683e-10 3.93609e-12 7.44347e-11 -2.90515e-10 8.373e-12 1.29541e-10 -1.68687e-10 3.93845e-12 7.44474e-11 -7.73091 5.47488 -0.417314 -1.68683e-10 3.93718e-12 7.44347e-11 -2.90554 0.965183 -0.102902 -1.68692e-10 3.9377e-12 7.44357e-11 -10.2786 0.731801 -0.0259123 -1.68681e-10 3.93879e-12 7.44277e-11 -2.22167 -0.733487 0.20892 -2.03217e-16 0.0 -3.88251e-19 -1.52268 0.114503 -1.54861 -0.00669726 -1.60363 -0.0585403 -0.422548 0.5363 -1.17694 2.03217e-16 0.0 3.88251e-19 1.3412 -6.62466 -1.92898 -0.0148403 10.1099 -0.176994 0.924862 -4.6549 3.91054
-4.9893 84.0582 37.1816 -3.4003 -3.0765 0.4283 0.242756 -0.0788527 1.33705 0.297844 -0.748737 0.359852 -0.68533 3.94856 -0.508181 2.03008 -3.62732 -0.782839 -0.0 0.0 0.0 -0.0 0.0 0.0 -4.18935e-16 1.27557e-14 9.32486e-14 48.4937 18.1993 -7.99483 -11.8057 -6.82858 18.8979 -0.031234 10.6498 1.49485 -2.10758e-10 -9.68073e-11 2.11206e-10 -3.60319e-10 -1.72863e-10 3.67703e-10 -2.10758e-10 -9.68013e-11 2.112e-10 7.73091 5.47488 0.417314 -2.10758e-10 -9.68077e-11 2.11212e-10 2.90554 0.965183 0.102902 -2.10751e-10 -9.68007e-11 2.11207e-10 10.2786 0.731801 0.0259123 -2.10762e-10 -9.68001e-11 2.11217e-10 2.22167 -0.733487 -0.20892 -4.166e-16 1.2754e-14 9.29163e-14 -48.9789 18.7051 3.50527 10.2489 -5.44436 -16.6707 0.0141397 7.18543 -1.00926 -2.03231e-10 -1.30991e-11 1.49751e-10 -3.49417e-10 -1.92805e-11 2.60849e-10 -2.03234e-10 -1.30959e-11 1.49763e-10 -7.73091 5.47488 -0.417314 -2.0323e-10 -1.30969e-11 1.49751e-10 -2.90554 0.965183 -0.102902 -2.03242e-10 -1.30963e-11 1.49751e-10 -10.2786 0.731801 -0.0259123 -2.03232e-10 -1.30952e-11 1.49746e-10 -2.22167 -0.733487 0.20892 -2.03217e-16 0.0 -3.88251e-19 -2.53346 2.26296 -3.17801 -0.00440504 -1.10158 -0.0405683 -0.526548 -3.11795 -2.56913 2.03217e-16 0.0 3.88251e-19 4.22731 -7.30457 -4.11131 -0.00407497 15.239 -0.321976 2.18586 -10.245 8.22635
-4.98976 84.0564 37.177 -3.4036 -3.0761 0.4468 0.923605 -0.112545 1.9653 0.595365 -1.09094 0.551987 -0.972616 5.7566 -0.743333 2.92145 -5.28797 -1.14578 -0.0 0.0 0.0 -0.0 0.0 0.0 4.51758e-15 1.81929e-14 1.30386e-13 72.5957 26.2471 -12.3655 -15.7389 -9.33281 27.7561 -0.238004 15.5242 2.22347 -2.13262e-10 -1.6595e-10 3.16529e-10 -3.6285e-10 -2.94607e-10 5.50542e-10 -2.13263e-10 -1.65942e-10 3.16527e-10 7.73091 5.47488 0.417314 -2.1326e-10 -1.65951e-10 3.16537e-10 2.90554 0.965183 0.102902 -2.13258e-10 -1.65941e-10 3.16533e-10 10.2786 0.731801 0.0259123 -2.13266e-10 -1.6594e-10 3.16544e-10 2.22167 -0.733487 -0.20892 4.56277e-15 1.81906e-14 1.30041e-13 -72.2839 27.22 5.44602 13.9034 -7.55339 -24.4242 0.106669 10.4803 -1.48553 -2.01977e-10 1.19801e-11 2.27394e-10 -3.46444e-10 2.5418e-11 3.95674e-10 -2.0198e-10 1.19839e-11 2.27407e-10 -7.73091 5.47488 -0.417314 -2.01976e-10 1.19831e-11 2.27394e-10 -2.90554 0.965183 -0.102902 -2.0199e-10 1.19839e-11 2.27394e-10 -10.2786 0.731801 -0.0259123 -2.0198e-10 1.19849e-11 2.27392e-10 -2.22167 -0.733487 0.20892 -2.03217e-16 0.0 -3.88251e-19 -3.33209 4.17194 -4.63909 -0.00262628 -0.653738 -0.0245468 -0.770076 -6.37064 -3.82699 2.03217e-16 0.0 3.88251e-19 6.75654 -7.89894 -6.06396 0.0288754 19.8134 -0.459493 4.0453 -15.0829 12.2662
-4.99085 84.0546 37.1763 -3.4107 -3.0717 0.4663 1.39624 -0.133864 2.40245 0.805476 -1.33018 0.685774 -1.15199 7.01123 -0.909401 3.50893 -6.44026 -1.40607 -0.0 0.0 0.0 -0.0 0.0 0.0 1.01067e-15 2.04764e-14 1.3582e-13 90.2611 31.6443 -15.9197 -18.0012 -10.6881 34.023 -0.459877 18.9143 2.76027 -1.26249e-10 -3.04411e-10 4.17521e-10 -2.10917e-10 -5.34384e-10 7.24144e-10 -1.26249e-10 -3.04401e-10 4.17521e-10 7.73091 5.47488 0.417314 -1.26246e-10 -3.04413e-10 4.17531e-10 2.90554 0.965183 0.102902 -1.26247e-10 -3.04401e-10 4.17526e-10 10.2786 0.731801 0.0259123 -1.26253e-10 -3.044e-10 4.17537e-10 2.22167 -0.733487 -0.20892 1.07665e-15 2.04739e-14 1.35472e-13 -88.9411 33.1107 7.05055 16.1002 -8.78073 -29.8846 0.204861 12.7879 -1.82798 -1.11221e-10 1.42346e-10 3.10858e-10 -1.88788e-10 2.50997e-10 5.39291e-10 -1.11224e-10 1.42349e-10 3.10871e-10 -7.73091 5.47488 -0.417314 -1.1122e-10 1.42348e-10 3.10858e-10 -2.90554 0.965183 -0.102902 -1.11234e-10 1.42349e-10 3.10858e-10 -10.2786 0.731801 -0.0259123 -1.11225e-10 1.4235e-10 3.10858e-10 -2.22167 -0.733487 0.20892 -2.03217e-16 0.0 -3.88251e-19 -3.83206 5.49613 -5.66494 -0.00153454 -0.341389 -0.0133823 -1.02531 -8.63499 -4.71882 2.03217e-16 0.0 3.88251e-19 8.49324 -8.30507 -7.42921 0.0659916 23.0013 -0.561649 5.76914 -18.3317 15.2371
-4.98912 84.0539 37.1782 -3.4033 -3.0667 0.4761 1.57685 -0.136939 2.57112 0.892329 -1.42311 0.737549 -1.19137 7.48938 -0.976495 3.68272 -6.88294 -1.52145 -0.0 0.0 0.0 -0.0 0.0 0.0 -1.69043e-14 1.78928e-14 8.70358e-14 97.4073 33.6955 -17.4673 -18.7949 -11.1181 36.501 -0.56492 20.2348 2.97784 1.19317e-10 -5.73989e-10 5.23044e-10 2.14789e-10 -9.9789e-10 9.02576e-10 1.19319e-10 -5.7398e-10 5.23043e-10 7.73091 5.47488 0.417314 1.19321e-10 -5.73993e-10 5.23053e-10 2.90554 0.965183 0.102902 1.19319e-10 -5.73982e-10 5.23048e-10 10.2786 0.731801 0.0259123 1.19313e-10 -5.7398e-10 5.23057e-10 2.22167 -0.733487 -0.20892 -1.68502e-14 1.78906e-14 8.67082e-14 -95.5736 35.4018 7.75279 16.8886 -9.19774 -32.0353 0.252028 13.7171 -1.96839 1.55227e-10 4.79029e-10 4.1274e-10 2.72621e-10 8.31221e-10 7.12344e-10 1.55222e-10 4.79032e-10 4.12753e-10 -7.73091 5.47488 -0.417314 1.55226e-10 4.79029e-10 4.1274e-10 -2.90554 0.965183 -0.102902 1.55215e-10 4.79031e-10 4.12742e-10 -10.2786 0.731801 -0.0259123 1.55225e-10 4.79033e-10 4.12742e-10 -2.22167 -0.733487 0.20892 -2.03217e-16 0.0 -3.88251e-19 -4.01668 6.01289 -6.06962 -0.00114056 -0.218699 -0.00901477 -1.14437 -9.52998 -5.07004 2.03217e-16 0.0 3.88251e-19 9.16382 -8.46058 -7.96934 0.0838531 24.2486 -0.603321 6.54402 -19.5712 16.4455
